HIERARCHY
ROOT RootJoint
{
    OFFSET   0.000000   0.000000   0.000000
    CHANNELS 6 Xposition Yposition Zposition Xrotation Yrotation Zrotation
    JOINT lHip
    {
        OFFSET   0.100000  -0.051395   0.000000
        CHANNELS 3 Xrotation Yrotation Zrotation
        JOINT lKnee
        {
            OFFSET   0.000000  -0.410000   0.000000
            CHANNELS 3 Xrotation Yrotation Zrotation
            JOINT lAnkle
            {
                OFFSET   0.000000  -0.390000   0.000000
                CHANNELS 3 Xrotation Yrotation Zrotation
                JOINT lToeJoint
                {
                    OFFSET   0.000000  -0.050000   0.130000
                    CHANNELS 3 Xrotation Yrotation Zrotation
                    End Site
                    {
                        OFFSET   0.010000   0.002000   0.060000
                    }
                }
            }
        }
    }
    JOINT pelvis_lowerback
    {
        OFFSET   0.000000   0.093605   0.000000
        CHANNELS 3 Xrotation Yrotation Zrotation
        JOINT lowerback_torso
        {
            OFFSET   0.000000   0.100000   0.000000
            CHANNELS 3 Xrotation Yrotation Zrotation
            JOINT lTorso_Clavicle
            {
                OFFSET   0.001000   0.157500   0.000000
                CHANNELS 3 Xrotation Yrotation Zrotation
                JOINT lShoulder
                {
                    OFFSET   0.117647   0.000000   0.000000
                    CHANNELS 3 Xrotation Yrotation Zrotation
                    JOINT lElbow
                    {
                        OFFSET   0.245000   0.000000   0.000000
                        CHANNELS 3 Xrotation Yrotation Zrotation
                        JOINT lWrist
                        {
                            OFFSET   0.240000   0.000000   0.000000
                            CHANNELS 3 Xrotation Yrotation Zrotation
                            End Site
                            {
                                OFFSET   0.116353  -0.002500   0.000000
                            }
                        }
                    }
                }
            }
            JOINT rTorso_Clavicle
            {
                OFFSET  -0.001000   0.157500   0.000000
                CHANNELS 3 Xrotation Yrotation Zrotation
                JOINT rShoulder
                {
                    OFFSET  -0.117647   0.000000   0.000000
                    CHANNELS 3 Xrotation Yrotation Zrotation
                    JOINT rElbow
                    {
                        OFFSET  -0.245000   0.000000   0.000000
                        CHANNELS 3 Xrotation Yrotation Zrotation
                        JOINT rWrist
                        {
                            OFFSET  -0.240000   0.000000   0.000000
                            CHANNELS 3 Xrotation Yrotation Zrotation
                            End Site
                            {
                                OFFSET  -0.116353  -0.002500   0.000000
                            }
                        }
                    }
                }
            }
            JOINT torso_head
            {
                OFFSET   0.000000   0.282350   0.000000
                CHANNELS 3 Xrotation Yrotation Zrotation
                End Site
                {
                    OFFSET   0.000000   0.192650   0.000000
                }
            }
        }
    }
    JOINT rHip
    {
        OFFSET  -0.100000  -0.051395   0.000000
        CHANNELS 3 Xrotation Yrotation Zrotation
        JOINT rKnee
        {
            OFFSET   0.000000  -0.410000   0.000000
            CHANNELS 3 Xrotation Yrotation Zrotation
            JOINT rAnkle
            {
                OFFSET   0.000000  -0.390000   0.000000
                CHANNELS 3 Xrotation Yrotation Zrotation
                JOINT rToeJoint
                {
                    OFFSET   0.000000  -0.050000   0.130000
                    CHANNELS 3 Xrotation Yrotation Zrotation
                    End Site
                    {
                        OFFSET  -0.010000   0.002000   0.060000
                    }
                }
            }
        }
    }
}
MOTION
Frames: 4
Frame Time:   0.016667
-0.037765   0.900355   2.153179   -1.5129533135197477   0.2932415128236787   -1.707123845780117   -28.625274151985163   9.345665924071984   3.1990476053502674   66.95495276175895   3.1821771036147752   2.5920592064355206   9.053949253483047   2.2478619979366155   7.478273106478567   -0.012414123060879413   0.0024870211234496926   -0.0372445235820625   3.5463909841562447   -0.3229755579588689   0.8819562437391314   3.3017917771297656   -1.8737455662884839   0.06146209965209719   0.0005434455356971362   7.270609686671829   -19.72507055675067   16.964247038835374   -28.316955237699254   -51.52051730768147   0.22243938653322967   -11.372915361386841   0.25420959642927904   5.293369994060652   6.8265580138260855   -2.415164898934866   3.8414975403237293   2.3412734018411028   21.11655369264786   7.827667948702347   40.52837734880053   43.57520520895184   0.22830363673480153   18.692094735830782   -2.350298424179371   -4.809157578404282   -8.364904186722265   -1.5654158011269084   2.326201745167753   0.29473440574185805   0.2051142073478458   -7.282512332947908   0.43982051707506303   6.906538038163173   13.696945636025081   -3.505963848293451   4.382628071112971   -4.7442797553133005   -0.605944806300489   -9.611564197673166   -0.009998402369979556   -0.007449830883488255   0.009998402369979556   
-0.040355   0.900451   2.170299   -1.393464083181451   -1.1361752859902816   -1.5311529457517326   -30.376170048432076   9.662340538908452   3.0753894472260614   64.83002112768138   3.0970678933394575   2.4912415945570086   6.104977933725018   1.993831098948442   7.975293195092833   -0.012414123060879413   0.0024870211234496926   -0.0372445235820625   3.7574490543426875   -0.4497570193279544   1.2097423909496836   3.2646869682975637   -1.5555854634055986   -0.4549973922050224   -0.15145055152561018   7.896581592450988   -19.605616689050958   17.3718699012334   -27.374718494315456   -52.07493661309682   0.2287484459534057   -10.929702900476121   -0.19013364297669036   6.014116496626742   6.690382324924042   -2.192516761767136   3.979343239278451   2.760285380774672   21.21810806125667   6.1210057221815095   41.171116150323876   42.96900198035068   0.23330816115808214   19.50340859271616   -2.6327742931760154   -5.3008364339514955   -8.213461121334516   -1.7141310023117229   2.276002014735488   0.36185373571756496   0.3380173452796935   -5.793336450690915   0.37911766376687334   6.822872080456167   12.477255290927548   -2.575905061864138   3.987412753096879   -5.602837187403477   -0.30304011727144475   -9.025794280156497   -0.010266815853834483   -0.00744987835397932   0.010266815853834483   
-0.040298   0.900414   2.188216   -1.393464083181451   -1.1361752859902816   -1.5311529457517326   -31.427524853519213   9.495656303140008   2.731553168013174   61.497425258505984   3.1715665306695335   1.8096783213254228   4.11447400500289   1.8542656822630046   7.724619339106056   -0.012414123060879413   0.0024870211234496926   -0.0372445235820625   3.7574490543426875   -0.4497570193279544   1.2097423909496836   3.2646869682975637   -1.5555854634055986   -0.4549973922050224   -0.15145055152561018   7.896581592450988   -19.605616689050958   17.3718699012334   -27.374718494315456   -52.07493661309682   0.2417021713981809   -10.900213129493089   -0.3685398613091706   6.048989611552044   6.88436971905235   -2.284780556345913   3.979343239278451   2.760285380774672   21.21810806125667   4.525762768675319   41.22795677655361   43.330569798946826   0.23330816115808214   19.50340859271616   -2.6327742931760154   -5.3008364339514955   -8.213461121334516   -1.7141310023117229   2.276002014735488   0.36185373571756496   0.3380173452796935   -4.35488023629887   0.7503367392476068   6.639368142171648   11.7979366564108   -2.290813343848386   3.815071697028627   -6.395941634095039   -0.05810024130452601   -8.897722371873412   -0.010535229337485854   -0.00744992708190904   0.010535229337485854   
-0.040157   0.90008   2.206223   -1.222430925586007   -2.459679918077264   -1.0619610042735497   -32.33428391193967   9.340508101487227   2.4047863771883375   57.82855667181414   3.290787951712702   1.1246730885164762   2.525440737916248   1.7606605940172178   7.4853050973620485   -0.15142972419700113   0.008082294155607867   -0.47920746126980485   3.8856560817615127   -0.26770263735181665   1.556922351956412   3.2720463414224934   0.09377023269583394   -1.5005726241392832   0.1208282642894476   7.80117732319206   -19.802598815718472   18.61245767989576   -27.025055329787275   -52.251038385175825   0.2538443284194388   -10.915564652300214   -0.5020454366607838   5.948253782458332   7.088994420156396   -2.50874633271953   3.707719851048152   2.6708226379979267   20.92981316769759   2.958047625938028   41.2740522976907   43.7361056494155   0.21889787249770037   19.98163576372375   -2.8634623057902058   -4.497877920962332   -7.378936590310863   -2.160295634284218   2.2236262060369696   0.33569757723788934   0.29936604186166543   -2.9612354041085984   1.2978566433144256   6.472914433003692   11.190014042678714   -2.13956416949494   3.6661403899639216   -7.25173128838838   0.09505015505976407   -8.767654946559636   -0.010803642820781003   -0.007449977067277414   0.010803642820781003   
